<svg width="1820" height="1024" viewBox="0 0 1820 1024" fill="none" xmlns="http://www.w3.org/2000/svg">
<rect width="1820" height="1024" fill="#1E1E1E"/>
<rect width="1820" height="1024" fill="white"/>
<path d="M1286.32 520.727C1286.32 493.498 1283.88 467.316 1279.34 442.182H917.68V590.895H1124.34C1115.27 638.72 1088.04 679.215 1047.19 706.444V803.142H1171.82C1244.43 736.116 1286.32 637.673 1286.32 520.727Z" fill="#4285F4"/>
<path d="M917.68 896C1021.36 896 1108.28 861.789 1171.82 803.142L1047.19 706.444C1012.98 729.484 969.346 743.447 917.68 743.447C817.84 743.447 733.011 676.073 702.64 585.309H574.873V684.451C638.058 809.775 767.571 896 917.68 896Z" fill="#34A853"/>
<path d="M702.64 584.96C694.96 561.92 690.422 537.484 690.422 512C690.422 486.516 694.96 462.08 702.64 439.04V339.898H574.873C548.691 391.564 533.68 449.862 533.68 512C533.68 574.138 548.691 632.436 574.873 684.102L674.364 606.604L702.64 584.96Z" fill="#FBBC05"/>
<path d="M917.68 280.902C974.233 280.902 1024.5 300.451 1064.65 338.153L1174.61 228.189C1107.93 166.051 1021.36 128 917.68 128C767.571 128 638.058 214.225 574.873 339.898L702.64 439.04C733.011 348.276 817.84 280.902 917.68 280.902Z" fill="#EA4335"/>
</svg>
